<svg width="1726" height="336" viewBox="0 0 1726 336" fill="none" xmlns="http://www.w3.org/2000/svg">
<path d="M0 32.32L36.0542 33.488C72.3002 34.802 144.409 37.138 216.325 27.502C288.242 17.72 359.967 -4.17997 431.884 5.60203C503.8 15.238 575.909 56.702 647.825 62.25C719.742 67.798 791.467 37.722 863.384 19.91C935.3 2.09801 1007.41 -3.15799 1079.33 3.12001C1151.24 9.39801 1222.97 27.502 1294.88 37.43C1366.8 47.358 1438.91 49.402 1510.83 42.248C1582.74 35.24 1654.47 19.18 1690.14 11.15L1726 3.12001V337.46H1690.14C1654.47 337.46 1582.74 337.46 1510.83 337.46C1438.91 337.46 1366.8 337.46 1294.88 337.46C1222.97 337.46 1151.24 337.46 1079.33 337.46C1007.41 337.46 935.3 337.46 863.384 337.46C791.467 337.46 719.742 337.46 647.825 337.46C575.909 337.46 503.8 337.46 431.884 337.46C359.967 337.46 288.242 337.46 216.325 337.46C144.409 337.46 72.3002 337.46 36.0542 337.46H0V32.32Z" fill="#417811"/>
<path d="M0 55.68L36.0542 55.3879C72.3002 55.2419 144.409 54.6579 216.325 53.1979C288.242 51.7379 359.967 49.402 431.884 47.942C503.8 46.482 575.909 45.898 647.825 59.622C719.742 73.2 791.467 100.94 863.384 117.73C935.3 134.52 1007.41 140.36 1079.33 134.082C1151.24 127.658 1222.97 109.262 1294.88 98.75C1366.8 88.238 1438.91 85.902 1510.83 84.15C1582.74 82.398 1654.47 81.5219 1690.14 80.9379L1726 80.5V337.46H1690.14C1654.47 337.46 1582.74 337.46 1510.83 337.46C1438.91 337.46 1366.8 337.46 1294.88 337.46C1222.97 337.46 1151.24 337.46 1079.33 337.46C1007.41 337.46 935.3 337.46 863.384 337.46C791.467 337.46 719.742 337.46 647.825 337.46C575.909 337.46 503.8 337.46 431.884 337.46C359.967 337.46 288.242 337.46 216.325 337.46C144.409 337.46 72.3002 337.46 36.0542 337.46H0V55.68Z" fill="#4A8518"/>
<path d="M0 144.74L36.0542 141.82C72.3002 138.9 144.409 133.06 216.325 124.738C288.242 116.562 359.967 105.758 431.884 114.372C503.8 122.84 575.909 150.58 647.825 148.39C719.742 146.2 791.467 114.08 863.384 100.21C935.3 86.3399 1007.41 90.7199 1079.33 95.3919C1151.24 99.9179 1222.97 104.882 1294.88 117.292C1366.8 129.702 1438.91 149.558 1510.83 155.398C1582.74 161.238 1654.47 153.062 1690.14 148.828L1726 144.74V337.46H1690.14C1654.47 337.46 1582.74 337.46 1510.83 337.46C1438.91 337.46 1366.8 337.46 1294.88 337.46C1222.97 337.46 1151.24 337.46 1079.33 337.46C1007.41 337.46 935.3 337.46 863.384 337.46C791.467 337.46 719.742 337.46 647.825 337.46C575.909 337.46 503.8 337.46 431.884 337.46C359.967 337.46 288.242 337.46 216.325 337.46C144.409 337.46 72.3002 337.46 36.0542 337.46H0V144.74Z" fill="#54921F"/>
<path d="M0 154.96L36.0542 151.018C72.3002 147.222 144.409 139.338 216.325 144.01C288.242 148.682 359.967 165.618 431.884 178.612C503.8 191.46 575.909 200.22 647.825 202.41C719.742 204.6 791.467 200.22 863.384 200.22C935.3 200.22 1007.41 204.6 1079.33 209.418C1151.24 214.382 1222.97 219.638 1294.88 212.338C1366.8 205.038 1438.91 185.182 1510.83 182.262C1582.74 179.342 1654.47 193.358 1690.14 200.512L1726 207.52V337.46H1690.14C1654.47 337.46 1582.74 337.46 1510.83 337.46C1438.91 337.46 1366.8 337.46 1294.88 337.46C1222.97 337.46 1151.24 337.46 1079.33 337.46C1007.41 337.46 935.3 337.46 863.384 337.46C791.467 337.46 719.742 337.46 647.825 337.46C575.909 337.46 503.8 337.46 431.884 337.46C359.967 337.46 288.242 337.46 216.325 337.46C144.409 337.46 72.3002 337.46 36.0542 337.46H0V154.96Z" fill="#5EA027"/>
<path d="M0 187.08L36.0542 193.65C72.3002 200.22 144.409 213.36 216.325 214.382C288.242 215.258 359.967 204.162 431.884 207.958C503.8 211.9 575.909 230.88 647.825 235.26C719.742 239.64 791.467 229.42 863.384 222.85C935.3 216.28 1007.41 213.36 1079.33 214.82C1151.24 216.28 1222.97 222.12 1294.88 226.792C1366.8 231.318 1438.91 234.822 1510.83 228.982C1582.74 223.142 1654.47 207.958 1690.14 200.512L1726 192.92V337.46H1690.14C1654.47 337.46 1582.74 337.46 1510.83 337.46C1438.91 337.46 1366.8 337.46 1294.88 337.46C1222.97 337.46 1151.24 337.46 1079.33 337.46C1007.41 337.46 935.3 337.46 863.384 337.46C791.467 337.46 719.742 337.46 647.825 337.46C575.909 337.46 503.8 337.46 431.884 337.46C359.967 337.46 288.242 337.46 216.325 337.46C144.409 337.46 72.3002 337.46 36.0542 337.46H0V187.08Z" fill="#68AD2E"/>
<path d="M0 264.46L36.0542 270.008C72.3002 275.702 144.409 286.798 216.325 288.258C288.242 289.718 359.967 281.542 431.884 272.782C503.8 264.022 575.909 254.678 647.825 253.948C719.742 253.218 791.467 261.102 863.384 262.562C935.3 264.022 1007.41 259.058 1079.33 258.62C1151.24 258.182 1222.97 261.978 1294.88 269.278C1366.8 276.578 1438.91 287.382 1510.83 289.718C1582.74 292.2 1654.47 286.36 1690.14 283.44L1726 280.52V337.46H1690.14C1654.47 337.46 1582.74 337.46 1510.83 337.46C1438.91 337.46 1366.8 337.46 1294.88 337.46C1222.97 337.46 1151.24 337.46 1079.33 337.46C1007.41 337.46 935.3 337.46 863.384 337.46C791.467 337.46 719.742 337.46 647.825 337.46C575.909 337.46 503.8 337.46 431.884 337.46C359.967 337.46 288.242 337.46 216.325 337.46C144.409 337.46 72.3002 337.46 36.0542 337.46H0V264.46Z" fill="#73BB35"/>
</svg>
