<svg id="visual" viewBox="0 0 900 600" width="900" height="600" xmlns="http://www.w3.org/2000/svg" xmlns:xlink="http://www.w3.org/1999/xlink" version="1.1"><path d="M0 366L21.5 377.2C43 388.3 86 410.7 128.8 406.8C171.7 403 214.3 373 257.2 369.2C300 365.3 343 387.7 385.8 406.2C428.7 424.7 471.3 439.3 514.2 454.2C557 469 600 484 642.8 481.2C685.7 478.3 728.3 457.7 771.2 441.5C814 425.3 857 413.7 878.5 407.8L900 402L900 601L878.5 601C857 601 814 601 771.2 601C728.3 601 685.7 601 642.8 601C600 601 557 601 514.2 601C471.3 601 428.7 601 385.8 601C343 601 300 601 257.2 601C214.3 601 171.7 601 128.8 601C86 601 43 601 21.5 601L0 601Z" fill="#73BB35" stroke-linecap="round" stroke-linejoin="miter"></path></svg>